<svg xmlns="http://www.w3.org/2000/svg" viewBox="0 0 1200 720" role="img" aria-labelledby="title desc">
  <title id="title">旅行共写小站插画</title>
  <desc id="desc">一张展开的旅行地图，上面有照片、路线、城市标记和手写便签。</desc>
  <defs>
    <linearGradient id="paper" x1="0" x2="1" y1="0" y2="1">
      <stop offset="0" stop-color="#fffaf2"/>
      <stop offset="1" stop-color="#f1e5d3"/>
    </linearGradient>
    <linearGradient id="water" x1="0" x2="1" y1="0" y2="1">
      <stop offset="0" stop-color="#bcd8d7"/>
      <stop offset="1" stop-color="#2f6f7b"/>
    </linearGradient>
    <linearGradient id="hill" x1="0" x2="1" y1="0" y2="1">
      <stop offset="0" stop-color="#7fa68c"/>
      <stop offset="1" stop-color="#274c43"/>
    </linearGradient>
    <filter id="shadow" x="-15%" y="-15%" width="130%" height="130%">
      <feDropShadow dx="0" dy="18" stdDeviation="18" flood-color="#20302c" flood-opacity="0.16"/>
    </filter>
    <pattern id="grid" width="52" height="52" patternUnits="userSpaceOnUse">
      <path d="M52 0H0v52" fill="none" stroke="#ded6c9" stroke-width="1" opacity="0.42"/>
    </pattern>
  </defs>

  <rect width="1200" height="720" fill="#fffaf2"/>
  <rect x="72" y="58" width="1056" height="604" rx="8" fill="url(#paper)" stroke="#ded6c9" stroke-width="2"/>
  <rect x="72" y="58" width="1056" height="604" rx="8" fill="url(#grid)" opacity="0.74"/>

  <path d="M86 505c110-70 207-58 294-6 88 53 151 45 226-21 77-68 171-108 271-67 81 33 134 95 237 68v183H86Z" fill="#d7e8dd"/>
  <path d="M94 552c134-43 240-29 330 16 113 57 226 50 334-24 116-80 215-55 354 2v116H94Z" fill="#f5eedf"/>
  <path d="M90 470c178-28 264-171 407-138 105 24 137 120 241 112 122-10 179-127 312-83" fill="none" stroke="#b9d2cf" stroke-width="22" stroke-linecap="round" opacity="0.72"/>
  <path d="M90 470c178-28 264-171 407-138 105 24 137 120 241 112 122-10 179-127 312-83" fill="none" stroke="#2f6f7b" stroke-width="4" stroke-linecap="round" stroke-dasharray="12 18"/>

  <g filter="url(#shadow)">
    <rect x="160" y="142" width="315" height="228" rx="8" fill="#fffdf8" stroke="#ded6c9" stroke-width="2"/>
    <rect x="184" y="166" width="267" height="144" rx="6" fill="#d7e8dd"/>
    <path d="M184 310l75-76 52 48 42-35 98 63Z" fill="url(#hill)"/>
    <path d="M184 310l62-42 45 42Z" fill="#d7a65f" opacity="0.78"/>
    <path d="M204 337h172" stroke="#20302c" stroke-width="8" stroke-linecap="round" opacity="0.16"/>
  </g>

  <g filter="url(#shadow)">
    <rect x="676" y="126" width="312" height="226" rx="8" fill="#fffdf8" stroke="#ded6c9" stroke-width="2"/>
    <rect x="700" y="150" width="264" height="142" rx="6" fill="url(#water)"/>
    <path d="M700 257c72-54 123-47 169 4 39 43 68 39 95 13v18H700Z" fill="#fffaf2" opacity="0.82"/>
    <path d="M724 321h178" stroke="#20302c" stroke-width="8" stroke-linecap="round" opacity="0.15"/>
  </g>

  <g>
    <path d="M255 512c74-102 157-149 249-141 119 10 139 125 254 136 109 10 178-72 280-62" fill="none" stroke="#c85f45" stroke-width="10" stroke-linecap="round" stroke-dasharray="2 28"/>
    <path d="M255 512c74-102 157-149 249-141 119 10 139 125 254 136 109 10 178-72 280-62" fill="none" stroke="#274c43" stroke-width="3" stroke-linecap="round"/>
  </g>

  <g>
    <path d="M279 497c0-25 20-45 45-45s45 20 45 45c0 39-45 82-45 82s-45-43-45-82Z" fill="#c85f45"/>
    <circle cx="324" cy="497" r="15" fill="#fffaf2"/>
    <path d="M560 402c0-22 18-40 40-40s40 18 40 40c0 35-40 73-40 73s-40-38-40-73Z" fill="#274c43"/>
    <circle cx="600" cy="402" r="13" fill="#fffaf2"/>
    <path d="M921 427c0-23 19-42 42-42s42 19 42 42c0 37-42 77-42 77s-42-40-42-77Z" fill="#d7a65f"/>
    <circle cx="963" cy="427" r="14" fill="#fffaf2"/>
  </g>

  <g filter="url(#shadow)">
    <rect x="424" y="516" width="250" height="96" rx="8" fill="#fffdf8" stroke="#ded6c9" stroke-width="2"/>
    <path d="M450 548h116M450 580h178" stroke="#20302c" stroke-width="9" stroke-linecap="round" opacity="0.17"/>
    <path d="M620 543l16 32 35 5-25 25 6 36-32-17-32 17 6-36-25-25 35-5Z" fill="#d7a65f" opacity="0.86"/>
  </g>

  <g transform="translate(1004 118)">
    <circle cx="44" cy="44" r="42" fill="#fffdf8" stroke="#ded6c9" stroke-width="2"/>
    <path d="M44 14v60M14 44h60" stroke="#274c43" stroke-width="4" stroke-linecap="round"/>
    <path d="M44 44l20-11-11 20-20 11Z" fill="#c85f45"/>
  </g>
</svg>
